SPORT: Scrum V - Six Nations Special
On: BBC 1 Wales 
Date: Sunday 10th February 2013 
Time: 23:25 to 00:25 

Jason Mohammad presents Scrum V Six Nations Special with all the talking points and highlights from France v Wales. Studio guests include former Wales internationals Kingsley Jones and Lyn Jones.

General
Complete name: 2013.02.10.Scrum.V.pdtv.x264.mkv
Format: Matroska
Format version: Version 4 / Version 2
File size: 693 MiB
Duration: 58mn 58s
Overall bit rate: 1 643 Kbps
Encoded date: UTC 2013-02-11 14:29:30
Writing application: mkvmerge v6.0.0 ('Coming Up For Air') built on Jan 20 2013 09:52:00
Writing library: libebml v1.3.0 + libmatroska v1.4.0

Video
ID: 1
Format: AVC
Format/Info: Advanced Video Codec
Format profile: High@L3.1
Format settings, CABAC: Yes
Format settings, ReFrames: 5 frames
Codec ID: V_MPEG4/ISO/AVC
Duration: 58mn 58s
Bit rate: 1 483 Kbps
Width: 688 pixels
Height: 560 pixels
Display aspect ratio: 16:9
Original display aspect ratio: 16:9
Frame rate mode: Constant
Frame rate: 25.000 fps
Color space: YUV
Chroma subsampling: 4:2:0
Bit depth: 8 bits
Scan type: Progressive
Bits/(Pixel*Frame): 0.154
Stream size: 625 MiB (90%)
Writing library: x264 core 129 r2245 bc13772

Audio
ID: 2
Format: AC-3
Format/Info: Audio Coding 3
Mode extension: CM (complete main)
Codec ID: A_AC3
Duration: 58mn 58s
Bit rate mode: Constant
Bit rate: 128 Kbps
Channel(s): 2 channels
Channel positions: Front: L R
Sampling rate: 48.0 KHz
Bit depth: 16 bits
Stream size: 54.0 MiB (8%)

